<?xml version="1.0" encoding="UTF-8" standalone="no"?>
<svg width="35px" height="35px" viewBox="0 0 35 35" version="1.1" xmlns="http://www.w3.org/2000/svg" xmlns:xlink="http://www.w3.org/1999/xlink" xmlns:sketch="http://www.bohemiancoding.com/sketch/ns">
    <!-- Generator: sketchtool 3.4 (356) - http://www.bohemiancoding.com/sketch -->
    <title>Oval 1 + Shape@0.5x</title>
    <desc>Created with sketchtool.</desc>
    <defs></defs>
    <g id="Page-1" stroke="none" stroke-width="1" fill="none" fill-rule="evenodd" sketch:type="MSPage">
        <g id="Desktop-HD" sketch:type="MSArtboardGroup" transform="translate(-384.000000, -186.000000)" fill="#FFFFFF">
            <g id="Oval-1-+-Shape-+-DEPORTES-+-Rectangle-2" sketch:type="MSLayerGroup" transform="translate(384.000000, 180.000000)">
                <g id="Oval-1-+-Shape" transform="translate(0.000000, 6.000000)" sketch:type="MSShapeGroup">
                    <path d="M17.5,35 C27.1649831,35 35,27.1649831 35,17.5 C35,7.83501688 27.1649831,0 17.5,0 C7.83501688,0 0,7.83501688 0,17.5 C0,27.1649831 7.83501688,35 17.5,35 Z M17.6944444,6.22222222 C11.3719753,6.22222222 6.22222222,11.3719753 6.22222222,17.6944444 C6.22222222,24.0169136 11.3719753,29.1666667 17.6944444,29.1666667 C24.0169136,29.1666667 29.1666667,24.0169136 29.1666667,17.6944444 C29.1666667,11.3719753 24.0169136,6.22222222 17.6944444,6.22222222 Z M14,8.10116959 C15.1578569,7.63450292 16.4415678,7.38888889 17.7756203,7.38888889 C19.1851852,7.38888889 20.5444085,7.68362573 21.7777778,8.1994152 L21.7274362,8.73976608 L18.2538655,9.72222222 L14.0251708,8.49415205 L14.0251708,8.10116959 L14,8.10116959 Z M13.4545455,9.33333333 L17.7727273,10.6212121 L18.2777778,13.6010101 L14.7929293,17.1111111 L11.2323232,16.6060606 L10.5,11.8080808 L13.4545455,9.33333333 L13.4545455,9.33333333 Z M7.38888889,17.9261626 C7.38888889,15.7605609 8.06296296,13.7254171 9.17777778,12.0555556 L9.74814815,12.0555556 L10.5,16.9085907 L8.86666667,20.2222222 L7.64814815,20.2222222 C7.46666667,19.4655662 7.38888889,18.7089102 7.38888889,17.9261626 L7.38888889,17.9261626 Z M7.77777778,20.6111111 L8.87581699,20.6111111 L11.5460487,23.7770655 L12.4444444,26.4444444 C10.2234106,25.1980057 8.52644088,23.1039886 7.77777778,20.6111111 L7.77777778,20.6111111 Z M17.8014184,28 C16.2671395,28 14.8108747,27.6584084 13.5106383,27.0540541 L12.4444444,23.8220721 L15.7210402,22.1666667 L20.5059102,23.7695195 L21,26.2132132 L18.8416076,27.9474474 C18.4775414,27.9737237 18.1394799,28 17.8014184,28 L17.8014184,28 Z M19.8333333,27.6111111 L21.1296296,26.4444444 L22.5555556,26.4444444 C21.7,26.9694444 20.7925926,27.3486111 19.8333333,27.6111111 L19.8333333,27.6111111 Z M20.5363697,23.3333333 L15.6805138,21.7 L15.1666667,17.5 L18.6351351,14 L22.6174508,15.7111111 L23.7222222,20.662963 L20.5363697,23.3333333 L20.5363697,23.3333333 Z M26.4444444,22.5555556 L26.4444444,21.8484848 L27.2222222,21 C27.0076628,21.5420875 26.7662835,22.0606061 26.4444444,22.5555556 L26.4444444,22.5555556 Z M28,17.4286442 C28,18.0030581 27.9498208,18.577472 27.8494624,19.1518858 L26.3691756,21 L24.437276,20.0509684 L23.3333333,15.1309888 L25.1648746,12.8333333 L27.2724014,13.7324159 C27.7491039,14.8562691 28,16.1049949 28,17.4286442 L28,17.4286442 Z M24.8710089,12.1657033 L22.1666667,8.87700706 L22.1912516,8.55555556 C24.0105364,9.49518304 25.5102171,11.0035324 26.4444444,12.8333333 L24.8710089,12.1657033 L24.8710089,12.1657033 Z" id="Oval-1"></path>
                </g>
            </g>
        </g>
    </g>
</svg>